<svg id="Layer_1" data-name="Layer 1" xmlns="http://www.w3.org/2000/svg" viewBox="0 0 282.72 64"><defs><style>.cls-1{fill:#fff;}</style></defs><path class="cls-1" d="M141.04,16c-11.04,0-19,7.2-19,18s8.96,18,20,18c6.67,0,12.55-2.64,16.19-7.09l-7.65-4.42a11.444,11.444,0,0,1-8.54,3.5c-4.79,0-8.86-2.5-10.37-6.5h28.02a18.059,18.059,0,0,0,.35-3.5c0-10.79-7.96-17.99-19-17.99Zm-9.46,14.5c1.25-3.99,4.67-6.5,9.45-6.5s8.21,2.51,9.45,6.5ZM248.72,16c-11.04,0-19,7.2-19,18s8.96,18,20,18c6.67,0,12.55-2.64,16.19-7.09l-7.65-4.42a11.444,11.444,0,0,1-8.54,3.5c-4.79,0-8.86-2.5-10.37-6.5h28.02a18.059,18.059,0,0,0,.35-3.5c0-10.79-7.96-17.99-19-17.99Zm-9.45,14.5c1.25-3.99,4.67-6.5,9.45-6.5s8.21,2.51,9.45,6.5ZM200.24,34c0,6,3.92,10,10,10,4.12,0,7.21-1.87,8.8-4.92l7.68,4.43c-3.18,5.3-9.14,8.49-16.48,8.49-11.05,0-19-7.2-19-18s7.96-18,19-18c7.34,0,13.29,3.19,16.48,8.49l-7.68,4.43c-1.59-3.05-4.68-4.92-8.8-4.92C204.17,24,200.24,28,200.24,34ZM282.72,5V51h-9V5ZM36.95,0,73.9,64H0Zm92.38,5L101.62,53,73.91,5H84.3l17.32,30L118.94,5Zm58.91,12v9.69a11.4,11.4,0,0,0-3.2-.49c-5.81,0-10,4-10,10V51h-9V17h9v9.2C175.04,21.12,180.95,17,188.24,17Z"/></svg>